# xmcd CD database file generated by OrangeCD 5.0
#
# Track frame offsets:
#	150
#	18546
#	30684
#	49496
#	67303
#	88599
#	108391
#	122789
#	140179
#	156207
#	170084
#
# Disc length: 2412 seconds
#
# Revision: 0
# Processed by: cddbd v1.5.1PL0 Copyright (c) Steve Scherf et al.
# Submitted via: OrangeCD 5.0
#
DISCID=a7096a0b
DTITLE=Jimmy Little - Life's What You Make It
DYEAR=2004
DGENRE=Country
TTITLE0=Under the Bridge
TTITLE1=People Get Ready
TTITLE2=Look Out For My Love
TTITLE3=Baby, Life's What You Make It
TTITLE4=One
TTITLE5=What's So Funny About Peace Love and Understanding
TTITLE6=One Line
TTITLE7=In My Room
TTITLE8=My Father's House
TTITLE9=On The Sacred Sand
TTITLE10=Stand By Me
EXTD=
EXTT0=
EXTT1=
EXTT2=
EXTT3=
EXTT4=
EXTT5=
EXTT6=
EXTT7=
EXTT8=
EXTT9=
EXTT10=
PLAYORDER=
